<svg xmlns="http://www.w3.org/2000/svg" version="1.1" xmlns:xlink="http://www.w3.org/1999/xlink" xmlns:svgjs="http://svgjs.dev/svgjs" width="1500" height="1500" viewBox="0 0 1500 1500"><rect width="1500" height="1500" fill="#ffffff"></rect><g transform="matrix(0.6666666666666666,0,0,0.6666666666666666,249.39393939393938,628.6946063218086)"><svg viewBox="0 0 396 96" data-background-color="#ffffff" preserveAspectRatio="xMidYMid meet" height="363" width="1500" xmlns="http://www.w3.org/2000/svg" xmlns:xlink="http://www.w3.org/1999/xlink"><g id="tight-bounds" transform="matrix(1,0,0,1,0.2400000000000091,0.12114790539823161)"><svg viewBox="0 0 395.52 95.75770418920351" height="95.75770418920351" width="395.52"><g><svg viewBox="0 0 600.741179316509 145.4429514139956" height="95.75770418920351" width="395.52"><g><rect width="9.586600780335907" height="106.83547937483777" x="420.61581356108877" y="19.303736019578906" fill="#00bf00" opacity="1" stroke-width="0" stroke="transparent" fill-opacity="1" class="rect-qz-0" data-fill-palette-color="primary" rx="1%" id="qz-0" data-palette-color="#00bf00"></rect></g><g transform="matrix(1,0,0,1,0,19.569495918521284)"><svg viewBox="0 0 395.52 106.30395957695302" height="106.30395957695302" width="395.52"><g id="textblocktransform"><svg viewBox="0 0 395.52 106.30395957695302" height="106.30395957695302" width="395.52" id="textblock"><g><svg viewBox="0 0 395.52 106.30395957695302" height="106.30395957695302" width="395.52"><g transform="matrix(1,0,0,1,0,0)"><svg width="395.52" viewBox="0.8 -29.85 128.413333333325 34.51921875" height="106.30395957695302" data-palette-color="#00bf00"><g class="wordmark-text-0" data-fill-palette-color="primary" id="text-0"><path d="M6 3.2L6 3.2Q4.75 3.2 4.13 2.65 3.5 2.1 3.5 1.15L3.5 1.15Q3.5 0.25 4.05-0.8 4.6-1.85 5.6-2.75L5.6-2.75Q5.9-3 6.1-3.05L6.1-3.05Q6.25-3.05 6.35-2.95L6.35-2.95Q6.4-2.9 6.4-2.75L6.4-2.75Q6.4-2.4 5.95-1.95L5.95-1.95Q4.55-0.5 4.55 0.5L4.55 0.5Q4.55 1.05 5.05 1.5 5.55 1.95 6.2 1.9L6.2 1.9Q8.7 1.8 11.35 0.8 14-0.2 16.3-1.98 18.6-3.75 20.1-6.05L20.1-6.05Q21.2-7.65 21.2-8.85L21.2-8.85Q21.2-10.4 19.2-10.4L19.2-10.4Q18.85-10.4 18.4-10.33 17.95-10.25 17.4-10.15L17.4-10.15 14.9-9.6Q11.85-8.95 9.5-8.47 7.15-8 5.3-8L5.3-8Q3.15-8 1.98-8.68 0.8-9.35 0.8-11L0.8-11Q0.8-11.75 1.1-12.8L1.1-12.8Q2.1-16.1 6.45-19.8L6.45-19.8Q9.4-22.3 13.05-24.28 16.7-26.25 20.43-27.43 24.15-28.6 27.4-28.6L27.4-28.6Q29.9-28.6 31.38-27.5 32.85-26.4 32.85-24.5L32.85-24.5Q32.85-22.75 31.6-20.75L31.6-20.75Q31.25-20.25 31-20.25L31-20.25Q30.9-20.25 30.8-20.43 30.7-20.6 30.7-20.8L30.7-20.8Q30.7-20.85 30.73-20.98 30.75-21.1 30.8-21.3L30.8-21.3Q31.2-22.5 31.2-23.6L31.2-23.6Q31.2-25.3 30.03-26.15 28.85-27 26.65-26.8L26.65-26.8Q22.8-26.4 17.85-24.35L17.85-24.35Q14.5-22.95 11.53-21.05 8.55-19.15 6.43-17.03 4.3-14.9 3.5-12.75L3.5-12.75Q3.3-12.35 3.3-11.8L3.3-11.8Q3.3-9.8 7.25-9.8L7.25-9.8Q9.15-9.8 11.43-10.2 13.7-10.6 16.7-11.2L16.7-11.2 18.45-11.55Q19.35-11.7 20.2-11.7L20.2-11.7Q21.8-11.7 22.75-11.05 23.7-10.4 23.7-9.25L23.7-9.25Q23.7-8.2 22.8-6.75L22.8-6.75Q21.95-5.4 20.8-4.17 19.65-2.95 18.25-1.8L18.25-1.8Q15.4 0.5 12.15 1.85 8.9 3.2 6 3.2ZM26.4 0.85L26.4 0.85Q24.45 0.85 24.45-0.9L24.45-0.9Q24.45-1 24.47-1.25 24.5-1.5 24.55-1.85L24.55-1.85Q25.05-3.9 26.57-5.83 28.1-7.75 30.1-9.2L30.1-9.2Q30.85-9.8 32.5-9.8L32.5-9.8Q33.45-9.8 34.17-9.53 34.9-9.25 35.2-8.7L35.2-8.7Q35.5-8.2 35.5-7.55L35.5-7.55Q35.5-7.45 35.47-7.25 35.45-7.05 35.4-6.8L35.4-6.8Q35.5-6.85 35.72-6.85 35.95-6.85 36.3-6.9L36.3-6.9Q36.65-6.95 36.97-7 37.3-7.05 37.65-7.05L37.65-7.05 37.85-7.05Q38.4-7.05 37.97-6.63 37.55-6.2 36.85-6.1L36.85-6.1 35.15-5.9Q34.65-4.5 33.42-3.1 32.2-1.7 30.72-0.68 29.25 0.35 27.95 0.65L27.95 0.65Q27.2 0.85 26.4 0.85ZM32.8-6.6L32.8-6.6Q33.1-6.6 33.52-6.63 33.95-6.65 34.5-6.7L34.5-6.7Q34.55-6.8 34.55-7.15L34.55-7.15Q34.55-8.05 33.8-8.4L33.8-8.4Q33.4-8.65 32.8-8.65L32.8-8.65Q32.05-8.65 31.27-8.18 30.5-7.7 29.65-6.95L29.65-6.95Q30.7-6.6 32.8-6.6ZM27.9-0.9L27.9-0.9Q28.4-0.9 29.32-1.38 30.25-1.85 31.25-2.65 32.25-3.45 33.05-4.35L33.05-4.35Q33.3-4.6 33.55-4.98 33.8-5.35 34.1-5.75L34.1-5.75 32.9-5.6Q30.1-5.2 27.9-5.15L27.9-5.15Q26.8-3.35 26.55-2.15L26.55-2.15Q26.5-1.5 26.9-1.2 27.3-0.9 27.9-0.9ZM35.25 3.55L35.25 3.55Q35.2 3.55 35.12 3.58 35.05 3.6 34.95 3.6L34.95 3.6Q34.4 3.6 34.4 3.05L34.4 3.05Q34.4 2.7 34.67 2.08 34.95 1.45 35.3 0.83 35.65 0.2 35.75 0L35.75 0Q36.3-0.95 36.62-1.55 36.95-2.15 37.05-2.45L37.05-2.45 38.25-5.3 37.7-5.65Q37.45-5.8 37.32-5.95 37.2-6.1 37.15-6.15L37.15-6.15 37.05-6.35Q37.05-6.65 37.8-6.85L37.8-6.85Q38.1-7.05 39.3-7.35L39.3-7.35 41.05-11 41.95-13.25Q43.95-18.25 45.77-21.48 47.6-24.7 50.05-25.85L50.05-25.85 50.1-25.85Q50.3-25.85 50.65-25.65 51-25.45 51.1-25.15L51.1-25.15Q51.15-24.95 51.17-24.73 51.2-24.5 51.2-24.25L51.2-24.25Q51.2-23.2 50.72-21.68 50.25-20.15 49.15-18.45L49.15-18.45Q48.15-16.95 46.62-15.18 45.1-13.4 43.05-11.35L43.05-11.35Q42.1-9.65 41.25-7.9L41.25-7.9Q42.6-8.3 44.4-9.1L44.4-9.1Q45.2-9.35 46.1-9.7 47-10.05 48-10.55L48-10.55Q48.25-10.65 48.55-10.8 48.85-10.95 49.15-11.1L49.15-11.1 50.85-11.85 51.4-11.9Q51.65-11.9 51.5-11.7L51.5-11.7Q51.35-11.4 50.35-10.75 49.35-10.1 48.3-9.55L48.3-9.55 45.5-8.3Q44.55-7.9 44-7.65 43.45-7.4 43.25-7.3L43.25-7.3Q42.9-6.85 42.62-6.43 42.35-6 42.15-5.6L42.15-5.6Q42.4-4.5 44.85-2.6L44.85-2.6Q45.85-1.8 46.25-1.45 46.65-1.1 46.55-1.2L46.55-1.2Q47.3-0.65 47.4-0.3L47.4-0.3 47.45-0.1 47.45-0.05Q47.45 0.2 47-0.05L47-0.05Q46.55-0.15 45.8-0.55L45.8-0.55 43.95-1.5Q42.8-2.1 42.12-2.5 41.45-2.9 40.9-3.3 40.35-3.7 39.5-4.3L39.5-4.3Q38.4-1.85 37.55 0.05L37.55 0.05Q37.5 0.2 37.47 0.28 37.45 0.35 37.45 0.4L37.45 0.4Q37.45 0.55 37.75 0.65L37.75 0.65Q38.05 0.7 38.1 0.85L38.1 0.85Q38.15 1.05 38.17 1.18 38.2 1.3 38.2 1.35L38.2 1.35Q38.2 2.2 37.27 2.8 36.35 3.4 35.25 3.55ZM43.3-13.4L43.3-13.4Q43.45-13.3 44.05-13.88 44.65-14.45 45.42-15.38 46.2-16.3 46.97-17.32 47.75-18.35 48.2-19.15L48.2-19.15Q48.95-20.45 49.45-21.68 49.95-22.9 49.95-23.55L49.95-23.55Q49.95-24.15 49.5-24.15L49.5-24.15Q48.95-24.15 48.1-23.15 47.25-22.15 46.42-20.7 45.6-19.25 45-17.95L45-17.95Q44.65-17.15 44.27-16.15 43.9-15.15 43.65-14.38 43.4-13.6 43.3-13.4ZM50.99 0.85L50.99 0.85Q49.04 0.85 49.04-0.9L49.04-0.9Q49.04-1 49.07-1.25 49.09-1.5 49.14-1.85L49.14-1.85Q49.64-3.9 51.17-5.83 52.69-7.75 54.69-9.2L54.69-9.2Q55.44-9.8 57.09-9.8L57.09-9.8Q58.04-9.8 58.77-9.53 59.49-9.25 59.79-8.7L59.79-8.7Q60.09-8.2 60.09-7.55L60.09-7.55Q60.09-7.45 60.07-7.25 60.04-7.05 59.99-6.8L59.99-6.8Q60.09-6.85 60.32-6.85 60.54-6.85 60.89-6.9L60.89-6.9Q61.24-6.95 61.57-7 61.89-7.05 62.24-7.05L62.24-7.05 62.44-7.05Q62.99-7.05 62.57-6.63 62.14-6.2 61.44-6.1L61.44-6.1 59.74-5.9Q59.24-4.5 58.02-3.1 56.79-1.7 55.32-0.68 53.84 0.35 52.54 0.65L52.54 0.65Q51.79 0.85 50.99 0.85ZM57.39-6.6L57.39-6.6Q57.69-6.6 58.12-6.63 58.54-6.65 59.09-6.7L59.09-6.7Q59.14-6.8 59.14-7.15L59.14-7.15Q59.14-8.05 58.39-8.4L58.39-8.4Q57.99-8.65 57.39-8.65L57.39-8.65Q56.64-8.65 55.87-8.18 55.09-7.7 54.24-6.95L54.24-6.95Q55.29-6.6 57.39-6.6ZM52.49-0.9L52.49-0.9Q52.99-0.9 53.92-1.38 54.84-1.85 55.84-2.65 56.84-3.45 57.64-4.35L57.64-4.35Q57.89-4.6 58.14-4.98 58.39-5.35 58.69-5.75L58.69-5.75 57.49-5.6Q54.69-5.2 52.49-5.15L52.49-5.15Q51.39-3.35 51.14-2.15L51.14-2.15Q51.09-1.5 51.49-1.2 51.89-0.9 52.49-0.9ZM68.54-13.35L68.54-13.35Q67.94-13.35 67.49-13.55L67.49-13.55Q66.14-13.95 64.74-15.25L64.74-15.25Q63.34-16.6 62.32-18.48 61.29-20.35 61.09-22.2L61.09-22.2Q61.04-22.4 61.04-22.7 61.04-23 61.04-23.4L61.04-23.4Q61.04-29.85 69.14-29.85L69.14-29.85Q73.14-29.85 77.94-28.6 82.74-27.35 89.09-25.25L89.09-25.25Q90.69-24.7 91.79-24.35 92.89-24 93.39-23.85L93.39-23.85Q95.09-23.35 96.54-23.35L96.54-23.35Q98.14-23.35 98.89-23.98 99.64-24.6 99.59-25.35L99.59-25.35 99.59-25.55Q99.59-26.15 99.94-26.15L99.94-26.15Q100.34-26.15 100.79-25.55L100.79-25.55Q100.99-25.3 100.99-24.85L100.99-24.85Q100.99-23.8 99.84-22.9 98.69-22 96.34-22L96.34-22Q94.19-22 91.59-22.7 88.99-23.4 84.84-24.75L84.84-24.75Q80.19-26.25 77.19-27.03 74.19-27.8 71.59-27.8L71.59-27.8Q65.49-27.8 63.84-22.45L63.84-22.45Q63.69-21.95 63.69-21.3L63.69-21.3Q63.69-20.05 64.37-18.48 65.04-16.9 66.04-15.68 67.04-14.45 67.99-14.25L67.99-14.25 68.34-14.25Q69.54-14.25 69.54-13.8L69.54-13.8Q69.54-13.65 69.29-13.5L69.29-13.5Q68.99-13.35 68.54-13.35ZM71.74 4.65L71.74 4.65Q69.39 4.15 69.39 2.1L69.39 2.1Q69.39 1.1 69.89-0.55L69.89-0.55Q70.39-2 70.82-3.13 71.24-4.25 71.64-5.05L71.64-5.05Q72.04-5.85 72.62-6.85 73.19-7.85 73.99-9.1L73.99-9.1 71.49-7.65Q70.84-7.3 70.34-7.05 69.84-6.8 69.44-6.7L69.44-6.7Q69.39-6.7 69.37-6.68 69.34-6.65 69.29-6.65L69.29-6.65Q69.04-6.65 69.04-7.05L69.04-7.05Q69.04-7.6 69.42-8.4 69.79-9.2 70.14-9.45L70.14-9.45Q70.79-9.8 71.34-10.05 71.89-10.3 72.29-10.4L72.29-10.4Q72.44-10.45 72.64-10.53 72.84-10.6 73.09-10.65L73.09-10.65Q73.54-10.8 74.29-11.1L74.29-11.1Q75.04-11.45 75.49-11.5L75.49-11.5Q75.49-11.5 75.84-12.03 76.19-12.55 76.89-13.6L76.89-13.6Q78.99-16.85 79.49-17.75L79.49-17.75Q80.69-19.9 81.64-21.1L81.64-21.1Q82.19-21.85 83.19-21.85L83.19-21.85Q83.89-21.85 84.49-21.5 85.09-21.15 85.09-20.75L85.09-20.75Q85.09-20.5 84.89-20.35L84.89-20.35Q83.49-19.15 81.57-16.98 79.64-14.8 77.79-12.35L77.79-12.35Q81.79-13.4 85.29-13.4L85.29-13.4Q86.09-13.4 86.44-13.25L86.44-13.25Q86.84-13 86.84-12.8L86.84-12.8Q86.84-12.65 86.54-12.4L86.54-12.4Q86.39-12.3 86.17-12.25 85.94-12.2 85.69-12.15L85.69-12.15Q83.79-12.05 82.34-11.8 80.89-11.55 79.52-11.13 78.14-10.7 76.44-10L76.44-10Q75.39-8.5 74.69-7.48 73.99-6.45 73.54-5.58 73.09-4.7 72.69-3.68 72.29-2.65 71.84-1.15L71.84-1.15Q71.34 0.35 71.34 1.25L71.34 1.25Q71.34 2.65 72.59 2.95L72.59 2.95Q73.04 3 73.04 3.45L73.04 3.45Q73.04 3.9 72.62 4.33 72.19 4.75 71.74 4.65ZM90.74 1.35L90.74 1.35Q90.64 1.35 90.54 1.33 90.44 1.3 90.34 1.25L90.34 1.25Q89.64 0.9 89.44 0.25 89.24-0.4 89.34-1.4L89.34-1.4Q89.44-1.8 89.56-2.8 89.69-3.8 89.89-4.4L89.89-4.4 87.34-1.95 85.94-0.6Q84.49 0.85 83.54 0.85L83.54 0.85Q83.14 0.85 82.89 0.55L82.89 0.55Q82.44 0 82.44-0.8L82.44-0.8Q82.44-1.85 82.99-3.05 83.54-4.25 84.29-5.38 85.04-6.5 85.64-7.25L85.64-7.25Q87.14-9.1 88.56-10.15 89.99-11.2 91.54-11.2L91.54-11.2Q92.39-11.2 93.21-10.9 94.04-10.6 94.74-9.9L94.74-9.9 94.79-9.85Q94.79-9.7 94.54-9.55L94.54-9.55Q94.44-9.45 94.36-9.4 94.29-9.35 94.24-9.3L94.24-9.3Q93.64-8.7 92.89-7.3 92.14-5.9 91.59-4.38 91.04-2.85 91.04-1.75L91.04-1.75Q91.04-0.75 91.54-0.4L91.54-0.4Q91.79-0.25 92.09-0.25L92.09-0.25Q92.74-0.25 93.89-1.05L93.89-1.05Q93.94-1.1 94.11-1.23 94.29-1.35 94.64-1.6L94.64-1.6Q95.04-1.9 95.29-1.9L95.29-1.9Q95.54-1.9 95.54-1.7L95.54-1.7Q95.54-1.4 95.14-1L95.14-1Q94.84-0.75 94.46-0.45 94.09-0.15 93.59 0.15L93.59 0.15Q92.84 0.7 92.04 1.03 91.24 1.35 90.74 1.35ZM85.09-1.85L85.09-1.85Q86.14-1.85 88.99-4.95L88.99-4.95Q89.74-5.8 90.34-6.58 90.94-7.35 91.44-8.1L91.44-8.1Q92.34-9.55 92.04-10.1L92.04-10.1Q91.89-10.4 91.44-10.4L91.44-10.4Q90.89-10.4 89.94-9.83 88.99-9.25 88.01-8.35 87.04-7.45 86.24-6.55L86.24-6.55Q85.69-5.85 85.14-4.6 84.59-3.35 84.59-2.55L84.59-2.55Q84.59-1.85 85.09-1.85ZM97.44 1.05L97.44 1.05Q96.79 1.05 96.79-0.1L96.79-0.1Q96.79-1.05 97.24-1.95L97.24-1.95Q98.39-4.15 99.34-6.3L99.34-6.3Q99.99-7.6 100.56-8.8 101.14-10 101.64-11L101.64-11Q101.94-11.3 102.24-11.3L102.24-11.3Q102.89-11.3 102.64-10.7L102.64-10.7Q102.54-10.35 102.36-9.88 102.19-9.4 101.94-8.75L101.94-8.75Q101.14-6.65 100.99-5.8L100.99-5.8Q102.39-7.05 103.86-8.13 105.34-9.2 106.64-9.9 107.94-10.6 108.84-10.6L108.84-10.6Q109.64-10.6 109.64-9.95L109.64-9.95Q109.64-9.4 109.14-8.78 108.64-8.15 108.14-8.15L108.14-8.15Q107.89-8.15 107.74-8.3L107.74-8.3Q107.59-8.35 107.14-8.35L107.14-8.35Q105.54-8.35 103.79-6.8L103.79-6.8Q101.94-5.25 100.44-3.08 98.94-0.9 98.24 0.7L98.24 0.7Q97.89 1.05 97.44 1.05ZM106.63 1.65L106.63 1.65Q106.28 1.65 106.28 1.05L106.28 1.05Q106.28 0.55 106.51-0.15 106.73-0.85 107.03-1.45L107.03-1.45Q107.48-2.3 108.38-4.45L108.38-4.45Q109.43-6.8 110.13-8.22 110.83-9.65 111.48-10.4L111.48-10.4Q112.18-11.25 112.58-11.25L112.58-11.25Q112.83-11.25 112.98-10.93 113.13-10.6 113.13-10.2L113.13-10.2Q113.13-9.8 113.03-9.7L113.03-9.7Q112.63-9.3 111.98-8.35 111.33-7.4 110.78-6.45L110.78-6.45Q109.73-4.5 109.73-3.55L109.73-3.55Q109.73-3.45 109.76-3.35 109.78-3.25 109.83-3.15L109.83-3.15Q110.43-3.45 110.93-3.75 111.43-4.05 112.08-4.6L112.08-4.6 115.13-7.4Q115.63-7.85 116.03-8.15 116.43-8.45 116.68-8.65L116.68-8.65Q117.18-9 117.63-9L117.63-9Q118.03-9 118.58-8.5L118.58-8.5Q118.83-8.25 118.83-7.15L118.83-7.15 118.83-5.9Q118.83-5.7 118.81-5.53 118.78-5.35 118.78-5.15L118.78-5.15Q118.78-4.5 118.96-4.03 119.13-3.55 119.48-3.55L119.48-3.55Q119.63-3.55 119.88-3.8L119.88-3.8 121.28-5.45Q123.03-7.5 123.98-8.45 124.93-9.4 126.13-9.75L126.13-9.75Q126.28-9.8 126.41-9.83 126.53-9.85 126.63-9.85L126.63-9.85Q127.08-9.85 127.41-9.55 127.73-9.25 127.58-8.75L127.58-8.75Q127.38-7.95 127.06-6.93 126.73-5.9 126.48-5.3L126.48-5.3Q125.88-4.1 125.88-3.4L125.88-3.4Q125.88-2.95 126.26-2.8 126.63-2.65 127.01-2.6 127.38-2.55 127.38-2.4L127.38-2.4Q128.38-2.75 128.88-2.75L128.88-2.75Q129.38-2.75 129.13-2.43 128.88-2.1 128.23-1.65 127.58-1.2 126.81-0.88 126.03-0.55 125.43-0.55L125.43-0.55Q124.18-0.55 124.18-1.9L124.18-1.9Q124.18-2.6 124.38-3.2L124.38-3.2Q125.08-5.75 125.08-6.5L125.08-6.5Q125.08-7.25 124.68-7.25L124.68-7.25Q123.78-7.25 120.83-3.65L120.83-3.65Q120.53-3.3 120.16-2.9 119.78-2.5 119.33-2.1L119.33-2.1Q118.73-1.55 118.18-0.95L118.18-0.95Q117.88-0.65 117.38-0.65L117.38-0.65Q116.33-0.65 116.23-1.4L116.23-1.4Q116.18-2.2 116.16-2.73 116.13-3.25 116.13-3.45L116.13-3.45Q116.03-4.75 115.98-5.2L115.98-5.2Q115.93-5.65 115.53-5.65L115.53-5.65Q115.03-5.65 113.03-4.05L113.03-4.05Q110.33-1.9 108.08 0.75L108.08 0.75Q107.13 1.65 106.63 1.65Z" fill="#00bf00" data-fill-palette-color="primary"></path></g></svg></g></svg></g></svg></g></svg></g><g transform="matrix(1,0,0,1,455.2982279025134,0)"><svg viewBox="0 0 145.4429514139956 145.4429514139956" height="145.4429514139956" width="145.4429514139956"><g><svg xmlns="http://www.w3.org/2000/svg" xmlns:xlink="http://www.w3.org/1999/xlink" version="1.1" x="0" y="0" viewBox="10 10 80 80" style="enable-background:new 0 0 100 100;" xml:space="preserve" height="145.4429514139956" width="145.4429514139956" class="icon-icon-0" data-fill-palette-color="accent" id="icon-0"><path d="M89 56.956h-1.405c0.073-1.248-0.006-2.5-0.258-3.73l-2.372-11.628c-1.096-5.374-5.863-9.279-11.345-9.299-0.011 0-0.019 0-0.027 0-0.01-0.001-0.017-0.001-0.028 0-5.482 0.02-10.25 3.925-11.345 9.299l-1.665 8.159-1.663-8.159c-1.096-5.374-5.863-9.279-11.346-9.299-0.011 0-0.019 0-0.027 0-0.01-0.001-0.018-0.001-0.028 0-5.482 0.02-10.25 3.925-11.345 9.299l-2.372 11.628c-0.251 1.233-0.331 2.484-0.258 3.73h-4.109l0.373-6.266c0.191-1.554-0.293-3.117-1.328-4.287-1.026-1.161-2.503-1.827-4.049-1.827h-2.235v-4.256c0.893 0.376 1.853 0.576 2.845 0.576 4.038 0 7.323-3.245 7.323-7.233 0-1.688-0.605-3.319-1.689-4.609 1.083-1.291 1.688-2.923 1.689-4.61 0-3.001-1.853-5.636-4.612-6.715 0.069-0.381 0.104-0.765 0.104-1.149C27.828 12.952 24.841 10 21.168 10s-6.66 2.952-6.66 6.58c0 0.384 0.035 0.768 0.104 1.149C11.853 18.809 10 21.443 10 24.444c0 1.687 0.605 3.318 1.688 4.61C10.605 30.344 10 31.976 10 33.663c0 3.988 3.285 7.233 7.323 7.233 0.992 0 1.951-0.201 2.845-0.576v4.256h-2.235c-1.546 0-3.022 0.666-4.049 1.827-1.035 1.17-1.52 2.733-1.334 4.224l0.37 6.329H11c-0.553 0-1 0.447-1 1V89c0 0.553 0.447 1 1 1h78c0.553 0 1-0.447 1-1V57.956C90 57.403 89.553 56.956 89 56.956zM17.323 38.896C14.388 38.896 12 36.549 12 33.663c0-1.464 0.636-2.872 1.744-3.864 0.212-0.189 0.333-0.461 0.333-0.745s-0.121-0.555-0.333-0.745C12.636 27.315 12 25.907 12 24.444c0-2.414 1.667-4.502 4.054-5.078 0.274-0.065 0.508-0.245 0.643-0.493 0.135-0.247 0.159-0.541 0.067-0.808-0.17-0.487-0.256-0.987-0.256-1.485C16.508 14.055 18.599 12 21.168 12s4.66 2.055 4.66 4.58c0 0.498-0.086 0.998-0.256 1.485-0.093 0.267-0.068 0.561 0.067 0.808 0.136 0.248 0.369 0.428 0.643 0.493 2.387 0.576 4.054 2.664 4.054 5.078 0 1.463-0.636 2.871-1.744 3.865-0.212 0.19-0.333 0.461-0.333 0.745s0.121 0.556 0.333 0.745c1.108 0.992 1.744 2.4 1.744 3.864 0 2.886-2.388 5.233-5.323 5.233-1.021 0-1.989-0.298-2.845-0.836V22.563c0-0.553-0.447-1-1-1s-1 0.447-1 1v15.497C19.313 38.598 18.344 38.896 17.323 38.896zM61.807 53.626l2.372-11.628c0.909-4.456 4.867-7.692 9.414-7.699 4.547 0.007 8.504 3.243 9.413 7.699l2.372 11.628c0.225 1.099 0.29 2.217 0.214 3.33H61.594C61.517 55.843 61.583 54.724 61.807 53.626zM35.733 53.626l2.371-11.628c0.909-4.456 4.867-7.692 9.415-7.699 4.547 0.007 8.505 3.243 9.414 7.699l2.371 11.628c0.225 1.099 0.29 2.217 0.213 3.33H35.519C35.443 55.845 35.509 54.727 35.733 53.626zM14.54 50.446c-0.121-0.985 0.186-1.977 0.842-2.717 0.647-0.732 1.577-1.152 2.551-1.153h6.47c0.974 0 1.903 0.42 2.551 1.153 0.656 0.741 0.963 1.732 0.836 2.78l-0.386 6.447H14.923L14.54 50.446zM12 88v-8.169h22.75c0.553 0 1-0.447 1-1s-0.447-1-1-1H12v-18.875h76V67.125H49.417c-0.553 0-1 0.447-1 1s0.447 1 1 1H88v8.706H41.811c-0.553 0-1 0.447-1 1s0.447 1 1 1H88V88H12z" fill="#00bf00" data-fill-palette-color="accent"></path><path d="M38.328 67.125H23.063c-0.553 0-1 0.447-1 1s0.447 1 1 1h15.265c0.553 0 1-0.447 1-1S38.881 67.125 38.328 67.125z" fill="#00bf00" data-fill-palette-color="accent"></path><path d="M65.897 46.337h1.578c0.553 0 1-0.447 1-1s-0.447-1-1-1h-1.578c-0.553 0-1 0.447-1 1S65.345 46.337 65.897 46.337z" fill="#00bf00" data-fill-palette-color="accent"></path><path d="M72.804 40.362h1.577c0.553 0 1-0.447 1-1s-0.447-1-1-1h-1.577c-0.553 0-1 0.447-1 1S72.251 40.362 72.804 40.362z" fill="#00bf00" data-fill-palette-color="accent"></path><path d="M72.571 49.421h1.576c0.553 0 1-0.447 1-1s-0.447-1-1-1h-1.576c-0.553 0-1 0.447-1 1S72.019 49.421 72.571 49.421z" fill="#00bf00" data-fill-palette-color="accent"></path><path d="M79.213 54.2c0 0.553 0.447 1 1 1h1.576c0.553 0 1-0.447 1-1s-0.447-1-1-1h-1.576C79.66 53.2 79.213 53.647 79.213 54.2z" fill="#00bf00" data-fill-palette-color="accent"></path><path d="M65.396 54.621h1.578c0.553 0 1-0.447 1-1s-0.447-1-1-1h-1.578c-0.553 0-1 0.447-1 1S64.844 54.621 65.396 54.621z" fill="#00bf00" data-fill-palette-color="accent"></path><path d="M78.069 45.929h1.577c0.553 0 1-0.447 1-1s-0.447-1-1-1h-1.577c-0.553 0-1 0.447-1 1S77.517 45.929 78.069 45.929z" fill="#00bf00" data-fill-palette-color="accent"></path><path d="M41.4 44.337h-1.576c-0.553 0-1 0.447-1 1s0.447 1 1 1h1.576c0.553 0 1-0.447 1-1S41.953 44.337 41.4 44.337z" fill="#00bf00" data-fill-palette-color="accent"></path><path d="M48.307 38.362h-1.577c-0.553 0-1 0.447-1 1s0.447 1 1 1h1.577c0.553 0 1-0.447 1-1S48.859 38.362 48.307 38.362z" fill="#00bf00" data-fill-palette-color="accent"></path><path d="M48.073 47.421h-1.576c-0.553 0-1 0.447-1 1s0.447 1 1 1h1.576c0.553 0 1-0.447 1-1S48.626 47.421 48.073 47.421z" fill="#00bf00" data-fill-palette-color="accent"></path><path d="M55.716 53.2h-1.577c-0.553 0-1 0.447-1 1s0.447 1 1 1h1.577c0.553 0 1-0.447 1-1S56.269 53.2 55.716 53.2z" fill="#00bf00" data-fill-palette-color="accent"></path><path d="M40.899 52.621h-1.576c-0.553 0-1 0.447-1 1s0.447 1 1 1h1.576c0.553 0 1-0.447 1-1S41.452 52.621 40.899 52.621z" fill="#00bf00" data-fill-palette-color="accent"></path><path d="M54.571 44.929c0-0.553-0.447-1-1-1h-1.576c-0.553 0-1 0.447-1 1s0.447 1 1 1h1.576C54.124 45.929 54.571 45.481 54.571 44.929z" fill="#00bf00" data-fill-palette-color="accent"></path><path d="M22.933 51.541h-3.53c-0.553 0-1 0.447-1 1s0.447 1 1 1h3.53c0.553 0 1-0.447 1-1S23.485 51.541 22.933 51.541z" fill="#00bf00" data-fill-palette-color="accent"></path></svg></g></svg></g></svg></g><defs></defs></svg><rect width="395.52" height="95.75770418920351" fill="none" stroke="none" visibility="hidden"></rect></g></svg></g></svg>