<svg xmlns="http://www.w3.org/2000/svg" version="1.1" xmlns:xlink="http://www.w3.org/1999/xlink" xmlns:svgjs="http://svgjs.dev/svgjs" width="1500" height="1500" viewBox="0 0 1500 1500"><rect width="1500" height="1500" fill="#000000"></rect><g transform="matrix(0.6666666666666666,0,0,0.6666666666666666,249.39393939393938,438.58569500674764)"><svg viewBox="0 0 396 247" data-background-color="#ffffff" preserveAspectRatio="xMidYMid meet" height="935" width="1500" xmlns="http://www.w3.org/2000/svg" xmlns:xlink="http://www.w3.org/1999/xlink"><g id="tight-bounds" transform="matrix(1,0,0,1,0.2400000000000091,-0.09999999999999432)"><svg viewBox="0 0 395.52 247.2" height="247.2" width="395.52"><g><svg></svg></g><g><svg viewBox="0 0 395.52 247.2" height="247.2" width="395.52"><g transform="matrix(1,0,0,1,75.54432000000001,51.056126389544445)"><svg viewBox="0 0 244.43135999999996 145.0877472209111" height="145.0877472209111" width="244.43135999999996"><g><svg viewBox="0 0 245.65351679999998 145.81318595701566" height="145.0877472209111" width="244.43135999999996"><g><rect width="245.65351679999998" height="3.673013631718621" x="0" y="91.79561652291693" fill="#ffffff" opacity="1" stroke-width="0" stroke="transparent" fill-opacity="1" class="rect-qz-0" data-fill-palette-color="primary" rx="1%" id="qz-0" data-palette-color="#398378"></rect></g><g transform="matrix(1,0,0,1,0.6110783999999825,105.08384908583612)"><svg viewBox="0 0 244.43136 40.72933687117953" height="40.72933687117953" width="244.43136"><g id="textblocktransform"><svg viewBox="0 0 244.43136 40.72933687117953" height="40.72933687117953" width="244.43136" id="textblock"><g><svg viewBox="0 0 244.43136 40.72933687117953" height="40.72933687117953" width="244.43136"><g transform="matrix(1,0,0,1,0,0)"><svg width="244.43136" viewBox="3 -36.25 223.83 36.8" height="40.72933687117953" data-palette-color="#398378"><g class="wordmark-text-0" data-fill-palette-color="primary" id="text-0"><path d="M15.45 0.55L15.45 0.55Q13.45 0.55 11.83-0.1 10.2-0.75 8.9-1.4L8.9-1.4Q7.8-2 7.08-2.3 6.35-2.6 5.8-2.6L5.8-2.6Q5.1-2.6 4.83-2.02 4.55-1.45 4.4-0.75L4.4-0.75 4.25 0 3 0 3.25-5.9 3.1-12.35 4.35-12.35 4.9-10Q5.45-7.8 6.88-5.7 8.3-3.6 10.48-2.25 12.65-0.9 15.45-0.9L15.45-0.9Q17-0.9 18.43-1.58 19.85-2.25 20.78-3.65 21.7-5.05 21.7-7.3L21.7-7.3Q21.7-10.65 19.53-12.7 17.35-14.75 13.5-16.6L13.5-16.6 11.4-17.6Q7.65-19.4 5.83-21.58 4-23.75 4-27.15L4-27.15Q4-29.8 5.3-31.85 6.6-33.9 8.88-35.05 11.15-36.2 14.1-36.2L14.1-36.2Q16.15-36.2 17.55-35.65 18.95-35.1 19.75-34.7L19.75-34.7Q21.05-34.05 21.8-34.05L21.8-34.05Q22.6-34.05 22.75-35.6L22.75-35.6 24-35.6 23.85-30.8 23.95-25.95 22.7-25.95Q22.4-28.75 21.15-30.73 19.9-32.7 18.13-33.75 16.35-34.8 14.35-34.8L14.35-34.8Q11.4-34.8 9.58-33.1 7.75-31.4 7.75-28.75L7.75-28.75Q7.75-25.9 9.6-24.28 11.45-22.65 14.4-21.2L14.4-21.2 16.45-20.2Q19.2-18.85 21.18-17.43 23.15-16 24.23-14.1 25.3-12.2 25.3-9.35L25.3-9.35Q25.3-6.4 23.98-4.15 22.65-1.9 20.43-0.68 18.2 0.55 15.45 0.55ZM41.8 0.55L41.8 0.55Q38.6 0.55 35.97-1 33.35-2.55 31.82-5.18 30.3-7.8 30.3-11L30.3-11Q30.3-14.3 31.82-16.95 33.35-19.6 35.97-21.15 38.6-22.7 41.8-22.7L41.8-22.7Q45.05-22.7 47.65-21.15 50.25-19.6 51.77-16.95 53.3-14.3 53.3-11L53.3-11Q53.3-7.8 51.77-5.18 50.25-2.55 47.65-1 45.05 0.55 41.8 0.55ZM41.8-0.7L41.8-0.7Q44.5-0.7 46.15-2.08 47.8-3.45 48.55-5.78 49.3-8.1 49.3-11L49.3-11Q49.3-14 48.55-16.35 47.8-18.7 46.15-20.08 44.5-21.45 41.8-21.45L41.8-21.45Q39.1-21.45 37.45-20.08 35.8-18.7 35.05-16.35 34.3-14 34.3-11L34.3-11Q34.3-8.1 35.05-5.78 35.8-3.45 37.45-2.08 39.1-0.7 41.8-0.7ZM62.45 0L56.3 0.15 56.3-1 57.09-1.1Q58.55-1.3 59.32-1.58 60.09-1.85 60.4-2.83 60.7-3.8 60.7-6.05L60.7-6.05 60.7-30.45Q60.7-33.05 59.62-33.77 58.55-34.5 56.65-34.5L56.65-34.5 56.3-34.5 56.3-35.65Q58.34-35.65 60.25-35.77 62.15-35.9 64.2-36.25L64.2-36.25 64.2-9.5 71.59-18.35Q72.25-19.15 72.25-19.75L72.25-19.75Q72.25-20.5 71.05-20.65L71.05-20.65 70.25-20.75 70.25-21.9 75.05-21.8 79.25-21.9 79.25-20.75 78.45-20.65Q76.2-20.35 74.67-19.3 73.15-18.25 71.9-16.75L71.9-16.75 69-13.3 77.5-3.8Q78.25-2.95 79.15-2.08 80.05-1.2 80.95-1.1L80.95-1.1 81.75-1 81.75 0.15 76.2 0 66.75-10.65 64.2-7.6 64.2-6.05Q64.2-3.8 64.5-2.83 64.8-1.85 65.57-1.58 66.34-1.3 67.8-1.1L67.8-1.1 68.59-1 68.59 0.15 62.45 0ZM95.49 0.55L95.49 0.55Q92.29 0.55 89.67-1 87.04-2.55 85.52-5.18 83.99-7.8 83.99-11L83.99-11Q83.99-14.3 85.52-16.95 87.04-19.6 89.67-21.15 92.29-22.7 95.49-22.7L95.49-22.7Q98.74-22.7 101.34-21.15 103.94-19.6 105.47-16.95 106.99-14.3 106.99-11L106.99-11Q106.99-7.8 105.47-5.18 103.94-2.55 101.34-1 98.74 0.55 95.49 0.55ZM95.49-0.7L95.49-0.7Q98.19-0.7 99.84-2.08 101.49-3.45 102.24-5.78 102.99-8.1 102.99-11L102.99-11Q102.99-14 102.24-16.35 101.49-18.7 99.84-20.08 98.19-21.45 95.49-21.45L95.49-21.45Q92.79-21.45 91.14-20.08 89.49-18.7 88.74-16.35 87.99-14 87.99-11L87.99-11Q87.99-8.1 88.74-5.78 89.49-3.45 91.14-2.08 92.79-0.7 95.49-0.7ZM118.64 0L111.24 0.15 111.24-1.1 112.24-1.2Q113.99-1.4 114.92-1.73 115.84-2.05 116.19-3.13 116.54-4.2 116.54-6.65L116.54-6.65 116.54-28.85Q116.54-31.35 116.19-32.4 115.84-33.45 114.92-33.77 113.99-34.1 112.24-34.3L112.24-34.3 111.24-34.4 111.24-35.65 118.64-35.5 138.74-35.5 138.89-31.85 139.34-27.4 138.14-27.4Q137.94-29.9 136.97-31.28 135.99-32.65 134.59-33.23 133.19-33.8 131.72-33.93 130.24-34.05 128.99-34.05L128.99-34.05 120.79-34.05 120.79-19.4 126.39-19.4Q127.39-19.4 128.14-19.88 128.89-20.35 129.37-21.65 129.84-22.95 129.94-25.4L129.94-25.4 131.19-25.4 131.04-18.7 131.19-11.3 129.94-11.3Q129.94-14.95 129.04-16.48 128.14-18 126.39-18L126.39-18 120.79-18 120.79-6.65Q120.79-4.2 121.19-3.08 121.59-1.95 122.54-1.63 123.49-1.3 125.09-1.2L125.09-1.2 126.79-1.1 126.79 0.15 118.69 0 118.64 0ZM147.64 0.55L147.64 0.55Q145.24 0.55 143.66-0.68 142.09-1.9 142.09-4.1L142.09-4.1Q142.09-6.3 144.04-8.03 145.99-9.75 148.59-11.15L148.59-11.15Q150.54-12.25 152.49-13.05 154.44-13.85 155.84-14.4L155.84-14.4 155.84-16Q155.84-18.75 154.81-20.1 153.79-21.45 150.94-21.45L150.94-21.45Q149.59-21.45 148.29-21.1 146.99-20.75 146.99-19.8L146.99-19.8Q146.99-19.6 147.06-19.35 147.14-19.1 147.19-18.85L147.19-18.85Q147.44-18.2 147.44-17.5L147.44-17.5Q147.44-16.55 146.76-16.03 146.09-15.5 145.14-15.5L145.14-15.5Q144.24-15.5 143.64-16.18 143.04-16.85 143.04-17.8L143.04-17.8Q143.04-19.6 144.41-20.68 145.79-21.75 147.79-22.23 149.79-22.7 151.64-22.7L151.64-22.7Q155.64-22.7 157.49-20.85 159.34-19 159.34-14.8L159.34-14.8 159.34-5.8Q159.34-3.6 159.66-2.4 159.99-1.2 161.14-1.2L161.14-1.2Q161.89-1.2 162.44-1.75 162.99-2.3 163.19-2.95L163.19-2.95 164.09-2.6Q163.69-1.15 162.66-0.3 161.64 0.55 159.84 0.55L159.84 0.55Q157.64 0.55 156.81-0.73 155.99-2 155.89-4.1L155.89-4.1Q154.49-1.85 152.34-0.65 150.19 0.55 147.64 0.55ZM145.99-4.35L145.99-4.35Q145.99-2.95 146.81-2.13 147.64-1.3 149.24-1.3L149.24-1.3Q150.69-1.3 152.01-2 153.34-2.7 154.34-3.78 155.34-4.85 155.84-6.1L155.84-6.1 155.84-13.4Q154.19-12.7 152.46-11.78 150.74-10.85 149.26-9.7 147.79-8.55 146.89-7.23 145.99-5.9 145.99-4.35ZM171.64 0L165.49 0.15 165.49-1 166.28-1.1Q167.74-1.3 168.51-1.58 169.28-1.85 169.59-2.83 169.89-3.8 169.89-6.05L169.89-6.05 169.89-16.45Q169.89-18.4 169.36-19.3 168.84-20.2 167.84-20.43 166.84-20.65 165.49-20.65L165.49-20.65 165.49-21.8Q167.53-21.8 169.44-21.95 171.34-22.1 173.39-22.4L173.39-22.4 172.84-16.65 173.03-16.65Q174.14-20 175.74-21.35 177.34-22.7 179.19-22.7L179.19-22.7Q181.28-22.7 181.99-21.68 182.69-20.65 182.69-19.7L182.69-19.7Q182.69-18.6 182.03-17.9 181.39-17.2 180.28-17.2L180.28-17.2Q179.24-17.2 178.69-17.7 178.14-18.2 178.14-18.85L178.14-18.85Q178.14-19.35 178.26-19.8 178.39-20.25 178.39-20.5L178.39-20.5Q178.39-21 177.69-21L177.69-21Q176.99-21 176.21-20.35 175.44-19.7 174.89-18.55L174.89-18.55Q174.44-17.6 174.03-16.45 173.64-15.3 173.39-13.95L173.39-13.95 173.39-6.05Q173.39-3.8 173.69-2.83 173.99-1.85 174.76-1.58 175.53-1.3 176.99-1.1L176.99-1.1 177.78-1 177.78 0.15 171.64 0ZM191.23 0L185.08 0.15 185.08-1 185.88-1.1Q187.33-1.3 188.11-1.58 188.88-1.85 189.18-2.83 189.48-3.8 189.48-6.05L189.48-6.05 189.48-16.6Q189.48-18.4 188.96-19.28 188.43-20.15 187.43-20.4 186.43-20.65 185.08-20.65L185.08-20.65 185.08-21.8Q187.13-21.8 189.03-21.93 190.93-22.05 192.98-22.4L192.98-22.4 192.98-18.5Q194.08-20.2 196.06-21.45 198.03-22.7 200.63-22.7L200.63-22.7Q203.28-22.7 205.06-21.58 206.83-20.45 207.43-18.05L207.43-18.05Q208.48-19.85 210.53-21.28 212.58-22.7 215.38-22.7L215.38-22.7Q218.63-22.7 220.56-21 222.48-19.3 222.48-15.6L222.48-15.6 222.48-6.05Q222.48-3.85 222.76-2.88 223.03-1.9 223.81-1.6 224.58-1.3 226.03-1.1L226.03-1.1 226.83-1 226.83 0.15 220.73 0 215.08 0.15 215.08-1 215.88-1.1Q217.13-1.25 217.81-1.55 218.48-1.85 218.73-2.83 218.98-3.8 218.98-6.05L218.98-6.05 218.98-16.45Q218.98-18.65 217.78-19.93 216.58-21.2 214.38-21.2L214.38-21.2Q212.58-21.2 211.23-20.4 209.88-19.6 209.01-18.4 208.13-17.2 207.73-16.05L207.73-16.05Q207.73-15.85 207.73-15.6L207.73-15.6 207.73-6.05Q207.73-3.8 207.98-2.83 208.23-1.85 208.91-1.58 209.58-1.3 210.83-1.1L210.83-1.1 211.63-1 211.63 0.15 205.98 0 200.33 0.15 200.33-1 201.13-1.1Q202.38-1.3 203.06-1.58 203.73-1.85 203.98-2.83 204.23-3.8 204.23-6.05L204.23-6.05 204.23-16.45Q204.23-18.65 203.03-19.93 201.83-21.2 199.63-21.2L199.63-21.2Q197.88-21.2 196.53-20.4 195.18-19.6 194.28-18.4 193.38-17.2 192.98-16.05L192.98-16.05 192.98-6.05Q192.98-3.8 193.23-2.83 193.48-1.85 194.16-1.58 194.83-1.3 196.08-1.1L196.08-1.1 196.88-1 196.88 0.15 191.23 0Z" fill="#ffffff" data-fill-palette-color="primary"></path></g></svg></g></svg></g></svg></g></svg></g><g transform="matrix(1,0,0,1,81.73653541767612,0)"><svg viewBox="0 0 82.18044596464772 82.18039759171636" height="82.18039759171636" width="82.18044596464772"><g><svg xmlns="http://www.w3.org/2000/svg" data-name="Layer 1" viewBox="1.9999674495023965 2 60.000035350997805 60.00000003386661" x="0" y="0" height="82.18039759171636" width="82.18044596464772" class="icon-icon-0" data-fill-palette-color="accent" id="icon-0"><path d="M34 39a1 1 0 0 0-1-1H30V36H28v2H26V36H24v2H21a1 1 0 0 0-1 1v3a1 1 0 0 0 1 1h1.327l0.111 1H11.664a5.653 5.653 0 0 0-4.535 2.285C4.944 46.935 3.24 48.719 2.072 51.627l1.856 0.746A8.427 8.427 0 0 1 6.026 49.151c-0.015 0.169-0.026 0.34-0.026 0.513V61a1 1 0 0 0 1 1h7a1 1 0 0 0 1-1V54h6v7a1 1 0 0 0 1 1h8a1 1 0 0 0 1-1V47.319a4.318 4.318 0 0 0 0.325-1.19L31.673 43H33a1 1 0 0 0 1-1ZM13 60H12V54h1Zm14 0V53H25v7H23V53a1 1 0 0 0-1-1H11a1 1 0 0 0-1 1v7H8V49.664A3.668 3.668 0 0 1 11.664 46H22.661l0.014 0.129A4.323 4.323 0 0 0 29 49.496V60Zm5-19H30.778a0.999 0.999 0 0 0-0.994 0.89L29.337 45.908a2.352 2.352 0 0 1-4.674 0l-0.447-4.018A0.999 0.999 0 0 0 23.222 41H22V40H32Z" fill="#ffffff" data-fill-palette-color="accent"></path><path d="M62 53V51H58V47H56v4H52V47H50v4H46V47H44v4H40V47H38v4H34v2h4v3H34v2h4v4h2V58h4v4h2V58h4v4h2V58h4v4h2V58h4V56H58V53ZM40 56V53h4v3Zm6 0V53h4v3Zm10 0H52V53h4Z" fill="#ffffff" data-fill-palette-color="accent"></path><path d="M33.079 32.313a4.593 4.593 0 0 0 3.23 3.085L38 35.793v3.975a18.291 18.291 0 0 0-2.473 1.404l1.121 1.656A16.602 16.602 0 0 1 46 40a16.16 16.16 0 0 1 14.131 7.959l1.739-0.988A17.4 17.4 0 0 0 56 40.869V35.793l1.691-0.395a4.593 4.593 0 0 0 3.23-3.085l1.025-2.989a1 1 0 0 0-1.174-1.298l-2.463 0.576a4.593 4.593 0 0 0-3.23 3.086L55 31.917l-0.079-0.229a4.593 4.593 0 0 0-3.23-3.086l-2.463-0.576a1 1 0 0 0-1.174 1.298l1.025 2.989a4.593 4.593 0 0 0 3.23 3.085L54 35.793v3.98a18.918 18.918 0 0 0-14-0.795V35.793l1.691-0.395a4.593 4.593 0 0 0 3.23-3.085l1.025-2.989a1 1 0 0 0-1.174-1.298l-2.463 0.576a4.593 4.593 0 0 0-3.23 3.086L39 31.917l-0.079-0.229a4.593 4.593 0 0 0-3.23-3.086l-2.463-0.576a1 1 0 0 0-1.174 1.298Zm23.891 0.023a2.617 2.617 0 0 1 1.793-1.787l0.705-0.164-0.438 1.279a2.617 2.617 0 0 1-1.793 1.787l-0.705 0.164ZM52.763 33.451a2.617 2.617 0 0 1-1.793-1.787l-0.438-1.279 0.705 0.164a2.617 2.617 0 0 1 1.793 1.787l0.438 1.279ZM40.97 32.336a2.617 2.617 0 0 1 1.793-1.787l0.705-0.164-0.438 1.279a2.617 2.617 0 0 1-1.793 1.787l-0.705 0.164ZM35.237 30.549a2.617 2.617 0 0 1 1.793 1.787l0.438 1.279-0.705-0.164a2.617 2.617 0 0 1-1.793-1.787l-0.438-1.279Z" fill="#ffffff" data-fill-palette-color="accent"></path><path d="M9.577 15.493a1 1 0 0 0-1.415 0L2.298 21.359a1 1 0 0 0 0 1.414L5.23 25.707a1 1 0 0 0 1.415 0L8.8 23.551 7.01 35.856A1 1 0 0 0 8 37H20a1 1 0 0 0 0.99-1.144l-1.792-12.319 2.163 2.164a1 1 0 0 0 1.414 0L25.707 22.769a1 1 0 0 0 0-1.415L19.844 15.487a1.001 1.001 0 0 0-1.415 0l-0.764 0.764-1.004-1.004a3.02 3.02 0 0 0-0.048-2.443l1.056-1.052 0.754 0.755a1 1 0 0 0 1.415 0l5.864-5.866a1 1 0 0 0 0-1.414L22.77 2.293a1 1 0 0 0-1.415 0L15.492 8.159a1 1 0 0 0-0.001 1.414l0.761 0.761-1.023 1.023a2.992 2.992 0 0 0-2.58-0.122l-0.901-0.901 0.755-0.755A1 1 0 0 0 12.503 8.165L6.639 2.299a1 1 0 0 0-1.414 0L2.293 5.231a1 1 0 0 0 0 1.415L8.156 12.513a1.001 1.001 0 0 0 1.415 0l0.764-0.764 0.822 0.823a2.959 2.959 0 0 0-0.051 2.908l-0.772 0.771ZM22.063 4.414l1.518 1.52-4.45 4.452L17.613 8.866ZM4.414 5.938L5.932 4.42l4.45 4.452L8.864 10.391ZM5.938 23.586L4.419 22.066l4.45-4.452 1.518 1.52ZM13 35V33h2v2ZM23.586 22.062l-1.518 1.518-4.45-4.452 1.518-1.519Zm-8.69-7.989A1.073 1.073 0 1 1 13.822 13 1.075 1.075 0 0 1 14.896 14.073Zm-2.346 2.791a2.977 2.977 0 0 0 2.775-0.125l0.927 0.927-0.755 0.755a1 1 0 0 0 0 1.414l1.336 1.336L18.844 35H17V32a1 1 0 0 0-1-1H12a1 1 0 0 0-1 1v3H9.156l2.009-13.816 1.343-1.343a1 1 0 0 0 0.001-1.414l-0.761-0.761Z" fill="#ffffff" data-fill-palette-color="accent"></path><path d="M47 15a4 4 0 1 0-4-4A4.004 4.004 0 0 0 47 15Zm0-6a2 2 0 1 1-2 2A2.002 2.002 0 0 1 47 9Z" fill="#ffffff" data-fill-palette-color="accent"></path><rect x="46" y="2" width="2" height="3" fill="#ffffff" data-fill-palette-color="accent"></rect><rect x="46" y="17" width="2" height="3" fill="#ffffff" data-fill-palette-color="accent"></rect><rect x="53" y="10" width="3" height="2" fill="#ffffff" data-fill-palette-color="accent"></rect><rect x="38" y="10" width="3" height="2" fill="#ffffff" data-fill-palette-color="accent"></rect><rect x="50.80304" y="4.69688" width="3.00037" height="1.99979" transform="translate(11.29103 38.65251) rotate(-45)" fill="#ffffff" data-fill-palette-color="accent"></rect><rect x="40.19659" y="15.30333" width="3.00037" height="1.99979" transform="translate(0.68458 34.25918) rotate(-45)" fill="#ffffff" data-fill-palette-color="accent"></rect><rect x="51.30333" y="14.80304" width="1.99979" height="3.00037" transform="translate(3.78528 41.7479) rotate(-44.98681)" fill="#ffffff" data-fill-palette-color="accent"></rect><rect x="40.69688" y="4.19659" width="1.99979" height="3.00037" transform="translate(8.17862 31.14491) rotate(-44.98681)" fill="#ffffff" data-fill-palette-color="accent"></rect></svg></g></svg></g><g></g></svg></g></svg></g><g><path d="M107.237 41.489A122.216 122.216 0 0 1 288.283 41.489L284.628 41.489A118.561 118.561 0 0 0 110.892 41.489L107.237 41.489M107.237 205.711A122.216 122.216 0 0 0 288.283 205.711L284.628 205.711A118.561 118.561 0 0 1 110.892 205.711L107.237 205.711" fill="#ffffff" stroke="transparent" data-fill-palette-color="tertiary"></path></g></svg></g><defs></defs></svg><rect width="395.52" height="247.2" fill="none" stroke="none" visibility="hidden"></rect></g></svg></g></svg>