<svg xmlns="http://www.w3.org/2000/svg" version="1.1" xmlns:xlink="http://www.w3.org/1999/xlink" xmlns:svgjs="http://svgjs.dev/svgjs" width="1500" height="1055" viewBox="0 0 1500 1055"><g transform="matrix(1,0,0,1,0.9080362079312181,0.4271255060727981)"><svg viewBox="0 0 351 247" data-background-color="#f0e9e1" preserveAspectRatio="xMidYMid meet" height="1055" width="1500" xmlns="http://www.w3.org/2000/svg" xmlns:xlink="http://www.w3.org/1999/xlink"><g id="tight-bounds" transform="matrix(1,0,0,1,-0.21248047265589776,-0.09999999999999432)"><svg viewBox="0 0 351.4249609453118 247.2" height="247.2" width="351.4249609453118"><g><svg viewBox="0 0 395.52 278.2174144289517" height="247.2" width="351.4249609453118"><g transform="matrix(1,0,0,1,0,206.40913556184933)"><svg viewBox="0 0 395.52 71.80827886710239" height="71.80827886710239" width="395.52"><g id="textblocktransform"><svg viewBox="0 0 395.52 71.80827886710239" height="71.80827886710239" width="395.52" id="textblock"><g><svg viewBox="0 0 395.52 71.80827886710239" height="71.80827886710239" width="395.52"><g transform="matrix(1,0,0,1,0,0)"><svg width="395.52" viewBox="0.55 -36.9 206.53 37.544888911034995" height="71.80827886710239" data-palette-color="#419409"><path d="M18.5-31.55L18.5-31.55Q16.85-32.1 14.53-32.1 12.2-32.1 10.35-30.93 8.5-29.75 8.5-27.58 8.5-25.4 9.8-23.8 11.1-22.2 12.95-20.88 14.8-19.55 16.63-18.07 18.45-16.6 19.75-14.4 21.05-12.2 21.05-9.45 21.05-6.7 18.75-3.9L18.75-3.9Q15 0.6 6.35 0.6L6.35 0.6Q5.15 0.6 4.23 0.48 3.3 0.35 2.8 0.3 2.3 0.25 1.75 0.15L1.75 0.15Q0.55-0.05 0.55-0.45L0.55-0.45Q0.55-3.1 1.5-3.7L1.5-3.7Q3.55-3.05 5.7-3.05L5.7-3.05Q16.1-3.05 16.1-9L16.1-9Q16.1-12.1 11.7-15.35L11.7-15.35Q9.85-16.7 8.03-18.15 6.2-19.6 4.9-21.78 3.6-23.95 3.6-26.55L3.6-26.55Q3.6-30.5 7.03-33.05 10.45-35.6 15.05-35.6L15.05-35.6Q16.05-35.6 17.73-35.38 19.4-35.15 19.53-34.8 19.65-34.45 19.65-34 19.65-33.55 19.35-32.68 19.05-31.8 18.5-31.55ZM49.9-11.3L49.9-11.3Q49.9-6.15 46.37-2.78 42.85 0.6 37.92 0.6 33 0.6 29.77-2.5 26.55-5.6 26.55-10.88 26.55-16.15 29.97-19.18 33.4-22.2 39.4-22.2L39.4-22.2Q42.75-22.2 46.05-20.1L46.05-20.1Q47.75-18.95 48.82-16.68 49.9-14.4 49.9-11.3ZM38.6-3.1Q41.75-3.1 43.67-5.38 45.6-7.65 45.6-11 45.6-14.35 43.92-16.55 42.25-18.75 39.02-18.75 35.8-18.75 33.62-16.75 31.45-14.75 31.45-11.05 31.45-7.35 33.45-5.23 35.45-3.1 38.6-3.1ZM60.7-34.05L60.7-34.05 60.64-24.55Q60.64-18.7 60.95-14.45L60.95-14.45Q61.89-15.15 63.3-16.25L63.3-16.25Q66.44-18.75 67.8-19.6 69.14-20.45 69.8-21L69.8-21Q71.3-22.2 71.82-22.2 72.34-22.2 72.92-21.73 73.5-21.25 73.5-20.85L73.5-20.85Q73.5-20 71.32-18.35 69.14-16.7 66.97-15.23 64.8-13.75 64.8-13.35 64.8-12.95 65.97-11.7 67.14-10.45 68.47-9.18 69.8-7.9 71.22-6.58 72.64-5.25 72.75-5.15 72.84-5.05 73.32-4.63 73.8-4.2 74.05-3.95 74.3-3.7 74.64-3.3L74.64-3.3Q75.34-2.5 75.34-1.95 75.34-1.4 74.39-0.4 73.44 0.6 73.02 0.6 72.59 0.6 72.34 0.48 72.09 0.35 71.97 0.2 71.84 0.05 71.52-0.3 71.19-0.65 70.5-1.38 69.8-2.1 67.84-4.15L67.84-4.15Q63.55-8.7 60.84-11L60.84-11Q60.8-9.15 60.8-8.1L60.8-8.1 60.89-3.15Q60.89-2.95 60.89-2.33 60.89-1.7 60.87-1.3 60.84-0.9 60.57-0.5 60.3-0.1 59.72 0 59.14 0.1 58.2 0.1 57.24 0.1 56.84 0.03 56.45-0.05 56.24-0.5L56.24-0.5Q55.99-1 55.99-3.2L55.99-3.2 56.2-23.6 56.14-30.75Q56.14-36.2 56.8-36.7L56.8-36.7Q57.09-36.9 58.49-36.9 59.89-36.9 60.3-36.4 60.7-35.9 60.7-34.05ZM101.99-11.3L101.99-11.3Q101.99-6.15 98.47-2.78 94.94 0.6 90.02 0.6 85.09 0.6 81.87-2.5 78.64-5.6 78.64-10.88 78.64-16.15 82.07-19.18 85.49-22.2 91.49-22.2L91.49-22.2Q94.84-22.2 98.14-20.1L98.14-20.1Q99.84-18.95 100.92-16.68 101.99-14.4 101.99-11.3ZM90.69-3.1Q93.84-3.1 95.77-5.38 97.69-7.65 97.69-11 97.69-14.35 96.02-16.55 94.34-18.75 91.12-18.75 87.89-18.75 85.72-16.75 83.54-14.75 83.54-11.05 83.54-7.35 85.54-5.23 87.54-3.1 90.69-3.1ZM126.14-31.2L122.29-31.25 116.14-31.2 114.89-31.2Q113.59-31.15 113.59-31.2L113.59-31.2Q113.54-30.3 113.54-29.2L113.54-29.2 113.59-24.8 113.54-21.75Q113.54-20.8 113.59-20.3L113.59-20.3 121.64-20.35Q123.09-20.35 124.14-20.35 125.19-20.35 125.74-20.28 126.29-20.2 126.79-20.1L126.79-20.1Q127.84-19.95 127.84-19.5 127.84-19.05 127.47-18.25 127.09-17.45 126.89-17.15 126.69-16.85 126.16-16.73 125.64-16.6 125.49-16.6L125.49-16.6 124.39-16.6 119.94-16.65Q115.29-16.65 113.54-16.75L113.54-16.75Q113.44-15.45 113.44-12.95L113.44-12.95 113.49-9.55Q113.49-7.6 113.44-6.35L113.44-6.35 113.44-3.6 113.49-1.05Q113.49-0.3 112.81-0.1 112.14 0.1 110.91 0.1 109.69 0.1 109.34 0 108.99-0.1 108.84-0.5L108.84-0.5Q108.64-1 108.64-2.05L108.64-2.05 108.64-14.4Q108.64-26.15 108.79-28.48 108.94-30.8 108.94-31.85L108.94-31.85Q108.94-34.1 109.19-34.35 109.44-34.6 110.06-34.7 110.69-34.8 111.59-34.85 112.49-34.9 113.31-34.93 114.14-34.95 114.99-34.95L114.99-34.95 116.19-34.95 117.34-35Q128.04-35 128.54-34.6L128.54-34.6Q128.54-34.1 128.19-32.83 127.84-31.55 127.54-31.38 127.24-31.2 126.14-31.2L126.14-31.2ZM147.49 0.05L147.49 0.05Q145.99 0.05 146.09-1.6L146.09-1.6Q146.09-2.15 145.94-2.15L145.94-2.15Q145.54-2 144.34-1.3L144.34-1.3Q138.39 2.35 133.89-0.85L133.89-0.85Q131.84-2.3 131.84-4.85L131.84-4.85Q131.84-8.7 135.41-10.45 138.99-12.2 144.29-12.2L144.29-12.2Q145.24-12.2 145.69-12.15L145.69-12.15Q145.69-13 145.74-13.35L145.74-13.35Q145.74-16.2 144.16-17.63 142.59-19.05 139.79-19.05L139.79-19.05Q138.44-19.05 136.89-18.65 135.34-18.25 134.89-18.25 134.44-18.25 134.16-18.8 133.89-19.35 133.89-20.25 133.89-21.15 136.11-21.68 138.34-22.2 140.39-22.2L140.39-22.2Q145.24-22.2 147.76-19.65 150.29-17.1 150.29-12.2L150.29-12.2 150.29-1.9Q150.29-0.55 149.79-0.25 149.29 0.05 147.49 0.05ZM145.64-5.2L145.64-5.2Q145.74-6.6 145.74-8.2 145.74-9.8 145.69-10L145.69-10Q138.79-9.35 137.29-7.5L137.29-7.5Q136.49-6.55 136.49-5.3L136.49-5.3Q136.49-2.65 140.44-2.65L140.44-2.65Q142.44-2.65 144.01-3.58 145.59-4.5 145.64-5.2ZM157.44-5.3L157.44-5.3 157.78-16.4Q157.84-16.8 157.84-17.8 157.84-18.8 157.91-19.3 157.99-19.8 158.14-20.5L158.14-20.5Q158.44-21.75 159.59-21.75L159.59-21.75Q162.09-21.75 162.09-20.65L162.09-20.65Q162.09-19.8 162.14-19.45L162.14-19.45Q162.44-19.45 165.03-20.8 167.64-22.15 169.49-22.15L169.49-22.15Q170.24-22.15 170.51-21.78 170.78-21.4 170.78-20.05 170.78-18.7 170.44-18L170.44-18Q170.14-17.95 169.36-17.85 168.59-17.75 168.21-17.7 167.84-17.65 167.14-17.53 166.44-17.4 166.03-17.32 165.64-17.25 165.06-17.13 164.49-17 164.11-16.85 163.74-16.7 163.34-16.55L163.34-16.55Q162.53-16.25 162.24-15.75L162.24-15.75 162.24-12.5 162.34-4 162.34-3.25Q162.34-3.05 162.34-2.43 162.34-1.8 162.31-1.4 162.28-1 162.09-0.6L162.09-0.6Q161.69 0.05 160.01 0.05 158.34 0.05 158.03-0.15L158.03-0.15Q157.44-0.55 157.44-5.3ZM177.33-21.7L177.33-21.7 179.48-21.65Q179.53-21.6 179.93-19.95L179.93-19.95Q180.33-20.1 182.03-20.8L182.03-20.8Q185.48-22.15 187.43-22.15L187.43-22.15Q190.68-22.15 192.63-19.5L192.63-19.5 193.13-19.85Q193.68-20.2 193.83-20.3L193.83-20.3 194.43-20.65Q194.93-20.95 195.18-21.05 195.43-21.15 195.96-21.4 196.48-21.65 196.86-21.75 197.23-21.85 197.73-22L197.73-22Q198.68-22.2 199.88-22.2L199.88-22.2Q205.13-22.2 206.58-17.2L206.58-17.2Q206.98-16.1 207.08-11.9L207.08-11.9 207.08-2.6Q207.08-0.9 206.51-0.43 205.93 0.05 204.36 0.05 202.78 0.05 202.46-0.18 202.13-0.4 202.13-1.3L202.13-1.3 202.28-4.3 202.28-10.3Q202.28-10.5 202.28-11.6 202.28-12.7 202.26-13.5 202.23-14.3 202.01-15.5 201.78-16.7 201.33-17.2L201.33-17.2Q200.08-18.6 197.63-18.6L197.63-18.6Q192.98-18.6 192.98-15.55L192.98-15.55 193.13-11 193.13-4.2Q193.13-2 192.73-1.3L192.73-1.3Q192.53-0.95 191.83-0.95L191.83-0.95Q189.03-0.95 188.58-1.65L188.58-1.65Q188.23-2.15 188.31-3.2 188.38-4.25 188.38-4.4L188.38-4.4 188.63-13.25Q188.63-16.1 187.68-17.15 186.73-18.2 184.73-18.2L184.73-18.2Q179.93-18.2 179.93-16.35L179.93-16.35 180.03-12.25 179.93-3.6Q179.93-3.3 179.96-2.68 179.98-2.05 179.93-1.85L179.93-1.85 179.88-1.25Q179.83-0.85 179.73-0.7L179.73-0.7Q179.13-0.15 178.73-0.1L178.73-0.1Q177.63 0.05 177.01 0.05 176.38 0.05 176.16 0 175.93-0.05 175.78-0.18 175.63-0.3 175.53-0.43 175.43-0.55 175.36-0.83 175.28-1.1 175.26-1.33 175.23-1.55 175.23-2L175.23-2 175.23-4.55 175.43-14.95 175.53-19.1 175.63-20.1Q175.63-20.7 175.91-21.08 176.18-21.45 176.33-21.5L176.33-21.5Q176.93-21.7 177.33-21.7Z" opacity="1" transform="matrix(1,0,0,1,0,0)" fill="#419409" class="wordmark-text-0" data-fill-palette-color="primary" id="text-0"></path></svg></g></svg></g></svg></g></svg></g><g transform="matrix(1,0,0,1,111.5076434609054,0)"><svg viewBox="0 0 172.50471307818918 172.50471307818918" height="172.50471307818918" width="172.50471307818918"><g><svg></svg></g><g id="icon-0"><svg viewBox="0 0 172.50471307818918 172.50471307818918" height="172.50471307818918" width="172.50471307818918"><g><path d="M0 86.252c0-47.636 38.617-86.252 86.252-86.252 47.636 0 86.252 38.617 86.253 86.252 0 47.636-38.617 86.252-86.253 86.253-47.636 0-86.252-38.617-86.252-86.253zM86.252 166.029c44.059 0 79.777-35.717 79.777-79.777 0-44.059-35.717-79.777-79.777-79.776-44.059 0-79.777 35.717-79.776 79.776 0 44.059 35.717 79.777 79.776 79.777z" data-fill-palette-color="tertiary" fill="#4aa90a" stroke="transparent"></path></g><g transform="matrix(1,0,0,1,38.81860747609491,38.48372693314173)"><svg viewBox="0 0 94.86749812599936 95.53725921190572" height="95.53725921190572" width="94.86749812599936"><g><svg xmlns="http://www.w3.org/2000/svg" xmlns:xlink="http://www.w3.org/1999/xlink" version="1.1" x="0" y="0" viewBox="0.11144097469517969 0 31.77566496123292 32" style="enable-background:new 0 0 32 32;" xml:space="preserve" height="95.53725921190572" width="94.86749812599936" class="icon-cg-0" data-fill-palette-color="accent" id="cg-0"><g fill="#4eb30a" data-fill-palette-color="accent"><path d="M27.495 32H4.505C3.124 32 2 30.876 2 29.495V12c0-0.552 0.448-1 1-1s1 0.448 1 1v17.495C4 29.773 4.227 30 4.505 30h22.99C27.773 30 28 29.773 28 29.495V12c0-0.552 0.447-1 1-1s1 0.448 1 1v17.495C30 30.876 28.876 32 27.495 32z" fill="#4eb30a" data-fill-palette-color="accent"></path><g fill="#4eb30a" data-fill-palette-color="accent"><path d="M28.656 13c-0.894 0-1.733-0.348-2.364-0.98-1.023-1.021-2.686-1.022-3.709 0-1.262 1.263-3.467 1.263-4.729 0-1.023-1.021-2.687-1.022-3.709 0-1.261 1.261-3.466 1.264-4.729 0-1.022-1.022-2.687-1.022-3.709 0-1.136 1.137-3.042 1.284-4.339 0.334C0.26 11.542-0.177 10 0.307 8.603l2.4-6.925C3.054 0.675 4.002 0 5.064 0h21.871c1.062 0 2.01 0.674 2.357 1.678l2.4 6.925c0.483 1.397 0.047 2.939-1.062 3.752C30.055 12.777 29.372 13 28.656 13zM24.438 9.255c1.184 0 2.367 0.451 3.269 1.352 0.457 0.458 1.223 0.517 1.743 0.135 0.401-0.294 0.55-0.918 0.354-1.483-0.001 0-0.001 0-0.001 0l-2.399-6.924C27.335 2.134 27.146 2 26.936 2H5.064C4.854 2 4.666 2.134 4.596 2.333l-2.4 6.925C2 9.823 2.149 10.447 2.55 10.741c0.52 0.38 1.286 0.321 1.743-0.134 1.802-1.803 4.735-1.804 6.538 0 0.508 0.508 1.393 0.506 1.9 0 1.803-1.803 4.735-1.803 6.538 0 0.508 0.508 1.393 0.507 1.9 0C22.07 9.706 23.254 9.255 24.438 9.255z" fill="#4eb30a" data-fill-palette-color="accent"></path></g><path d="M20 32h-8c-0.552 0-1-0.447-1-1V19.505C11 18.124 12.124 17 13.505 17h4.99C19.876 17 21 18.124 21 19.505V31C21 31.553 20.553 32 20 32zM13 30h6V19.505C19 19.227 18.773 19 18.495 19h-4.99C13.227 19 13 19.227 13 19.505V30z" fill="#4eb30a" data-fill-palette-color="accent"></path><path d="M8 8C7.896 8 7.789 7.984 7.684 7.949 7.16 7.774 6.876 7.208 7.051 6.684l1-3c0.174-0.523 0.74-0.809 1.265-0.632 0.524 0.175 0.807 0.741 0.632 1.265l-1 3C8.809 7.735 8.419 8 8 8z" fill="#4eb30a" data-fill-palette-color="accent"></path><path d="M16 8c-0.552 0-1-0.448-1-1V4c0-0.552 0.448-1 1-1s1 0.448 1 1v3C17 7.552 16.552 8 16 8z" fill="#4eb30a" data-fill-palette-color="accent"></path><path d="M24 8c-0.419 0-0.809-0.265-0.948-0.684l-1-3c-0.175-0.524 0.108-1.09 0.632-1.265 0.529-0.177 1.09 0.109 1.265 0.632l1 3c0.175 0.524-0.108 1.09-0.632 1.265C24.211 7.984 24.104 8 24 8z" fill="#4eb30a" data-fill-palette-color="accent"></path></g></svg></g></svg></g></svg></g></svg></g><g></g></svg></g><defs></defs></svg><rect width="351.4249609453118" height="247.2" fill="none" stroke="none" visibility="hidden"></rect></g></svg></g></svg>